<svg width="100%" height="100%" viewBox="0 0 200 200" fill="none" xmlns="http://www.w3.org/2000/svg">
    <rect x="0" y="0" width="200" height="200" fill="none"/>
    
    <!-- Nodos principales -->
    <circle cx="50" cy="50" r="10" fill="#FF6B6B"/>
    <circle cx="150" cy="50" r="10" fill="#4ECDC4"/>
    <circle cx="100" cy="100" r="10" fill="#FF8C00"/>
    <circle cx="50" cy="150" r="10" fill="#FF6B6B"/>
    <circle cx="150" cy="150" r="10" fill="#4ECDC4"/>

    <!-- Conexiones -->
    <line x1="50" y1="50" x2="150" y2="50" stroke="#eee" stroke-width="2"/>
    <line x1="50" y1="50" x2="100" y2="100" stroke="#eee" stroke-width="2"/>
    <line x1="150" y1="50" x2="100" y2="100" stroke="#eee" stroke-width="2"/>
    <line x1="100" y1="100" x2="50" y2="150" stroke="#eee" stroke-width="2"/>
    <line x1="100" y1="100" x2="150" y2="150" stroke="#eee" stroke-width="2"/>
    <line x1="50" y1="150" x2="150" y2="150" stroke="#eee" stroke-width="2"/>
    
    <!-- Nodos secundarios y flujo -->
    <circle cx="75" cy="75" r="4" fill="#ccc"/>
    <circle cx="125" cy="75" r="4" fill="#ccc"/>
    <circle cx="75" cy="125" r="4" fill="#ccc"/>
    <circle cx="125" cy="125" r="4" fill="#ccc"/>

    <!-- Pequeños puntos de flujo -->
    <circle cx="60" cy="60" r="2" fill="#FF8C00"/>
    <circle cx="140" cy="60" r="2" fill="#FF6B6B"/>
    <circle cx="110" cy="90" r="2" fill="#4ECDC4"/>
    <circle cx="90" cy="110" r="2" fill="#FF8C00"/>
</svg>